<svg width="16" height="16" viewBox="0 0 16 16" fill="none" xmlns="http://www.w3.org/2000/svg">
<path d="M4.82658 1.33301H3.55992C2.09992 1.33301 1.33325 2.09967 1.33325 3.55301V4.81967C1.33325 6.27301 2.09992 7.03967 3.55325 7.03967H4.81992C6.27325 7.03967 7.03992 6.27301 7.03992 4.81967V3.55301C7.04659 2.09967 6.27992 1.33301 4.82658 1.33301Z" fill="currentColor"/>
<path d="M12.4466 1.33301H11.18C9.72663 1.33301 8.95996 2.09967 8.95996 3.55301V4.81967C8.95996 6.27301 9.72663 7.03967 11.18 7.03967H12.4466C13.9 7.03967 14.6666 6.27301 14.6666 4.81967V3.55301C14.6666 2.09967 13.9 1.33301 12.4466 1.33301Z" fill="currentColor"/>
<path d="M12.4466 8.95312H11.18C9.72663 8.95312 8.95996 9.71979 8.95996 11.1731V12.4398C8.95996 13.8931 9.72663 14.6598 11.18 14.6598H12.4466C13.9 14.6598 14.6666 13.8931 14.6666 12.4398V11.1731C14.6666 9.71979 13.9 8.95312 12.4466 8.95312Z" fill="currentColor"/>
<path d="M4.82658 8.95312H3.55992C2.09992 8.95312 1.33325 9.71979 1.33325 11.1731V12.4398C1.33325 13.8998 2.09992 14.6665 3.55325 14.6665H4.81992C6.27325 14.6665 7.03992 13.8998 7.03992 12.4465V11.1798C7.04659 9.71979 6.27992 8.95312 4.82658 8.95312Z" fill="currentColor"/>
</svg>
