<svg width="18" height="18" viewBox="0 0 18 18" fill="none" xmlns="http://www.w3.org/2000/svg">
<path opacity="0.4" d="M12.6 6.75H5.4C3 6.75 1.5 8.25 1.5 10.65V12.5925C1.5 15 3 16.5 5.4 16.5H12.5925C14.9925 16.5 16.4925 15 16.4925 12.6V10.65C16.5 8.25 15 6.75 12.6 6.75Z" fill="currentColor"/>
<path d="M11.9099 4.17758L9.39738 1.66508C9.17988 1.44758 8.81988 1.44758 8.60238 1.66508L6.08988 4.17758C5.87238 4.39508 5.87238 4.75508 6.08988 4.97258C6.30738 5.19008 6.66738 5.19008 6.88488 4.97258L8.43738 3.42008V11.4376C8.43738 11.7451 8.69238 12.0001 8.99988 12.0001C9.30738 12.0001 9.56238 11.7451 9.56238 11.4376V3.42008L11.1149 4.97258C11.2274 5.08508 11.3699 5.13758 11.5124 5.13758C11.6549 5.13758 11.7974 5.08508 11.9099 4.97258C12.1349 4.75508 12.1349 4.40258 11.9099 4.17758Z" fill="currentColor"/>
</svg>
