<svg width="24" height="24" viewBox="0 0 24 24" fill="none" xmlns="http://www.w3.org/2000/svg">
<path opacity="0.4" d="M11.8437 5C16.9487 5 20.2994 9.50513 21.4248 11.2871C21.5608 11.5024 21.6289 11.6103 21.667 11.7764C21.6956 11.9013 21.6956 12.0987 21.667 12.2236C21.6289 12.3897 21.5608 12.4976 21.4248 12.7129C20.2994 14.4949 16.9487 19 11.8437 19C6.73896 18.9998 3.38904 14.4948 2.26366 12.7129C2.12766 12.4975 2.05958 12.3897 2.02147 12.2236C1.99284 12.0987 1.99284 11.9013 2.02147 11.7764C2.05958 11.6103 2.12766 11.5025 2.26366 11.2871C3.38904 9.50518 6.73896 5.00024 11.8437 5ZM11.8437 8C9.6346 8 7.84374 9.79086 7.84374 12C7.84374 14.2091 9.6346 16 11.8437 16C14.0529 16 15.8437 14.2091 15.8437 12C15.8437 9.79086 14.0529 8 11.8437 8Z" fill="#687384"/>
<path d="M11.8385 9C10.1888 9 8.84375 10.345 8.84375 12.0053C8.84375 13.655 10.1888 15 11.8385 15C13.4882 15 14.8438 13.655 14.8438 12.0053C14.8438 10.3555 13.4882 9 11.8385 9Z" fill="#687384"/>
</svg>
