<svg width="24" height="25" viewBox="0 0 24 25" fill="none" xmlns="http://www.w3.org/2000/svg">
<path opacity="0.4" d="M10.7599 2.5C10.2799 2.5 9.8999 2.88 9.8999 3.36V21.65C9.8999 22.12 10.2799 22.51 10.7599 22.51C16.6499 22.51 20.7599 18.4 20.7599 12.51C20.7599 6.62 16.6399 2.5 10.7599 2.5Z" fill="currentColor"/>
<path d="M15.9 12.0402L13.06 9.19016C12.77 8.90016 12.29 8.90016 12 9.19016C11.71 9.48016 11.71 9.96016 12 10.2502L13.56 11.8102H3.98999C3.57999 11.8102 3.23999 12.1502 3.23999 12.5602C3.23999 12.9702 3.57999 13.3102 3.98999 13.3102H13.56L12 14.8802C11.71 15.1702 11.71 15.6502 12 15.9402C12.15 16.0902 12.34 16.1602 12.53 16.1602C12.72 16.1602 12.91 16.0902 13.06 15.9402L15.9 13.0902C16.2 12.8002 16.2 12.3302 15.9 12.0402Z" fill="currentColor"/>
</svg>
