<svg width="30" height="30" viewBox="0 0 30 30" fill="none" xmlns="http://www.w3.org/2000/svg">
<path d="M5.83301 17.667C3.67309 18.6198 2.33301 19.9476 2.33301 21.4162C2.33301 24.3157 7.55635 26.6662 13.9997 26.6662C20.443 26.6662 25.6663 24.3157 25.6663 21.4162C25.6663 19.9476 24.3263 18.6198 22.1663 17.667" stroke="currentColor" stroke-width="1.5" stroke-linecap="round" stroke-linejoin="round"/>
<path d="M14.0005 12.751C15.5082 12.751 16.7305 11.5288 16.7305 10.021C16.7305 8.51328 15.5082 7.29102 14.0005 7.29102C12.4928 7.29102 11.2705 8.51328 11.2705 10.021C11.2705 11.5288 12.4928 12.751 14.0005 12.751Z" fill="currentColor"/>
<path d="M6.66713 8.42875C8.39088 0.851252 19.6171 0.860002 21.3321 8.4375C22.3384 12.8825 19.5734 16.645 17.1496 18.9725C14.1221 22 13.8684 22 10.8409 18.9725C8.46923 16.6008 5.66088 12.8738 6.66713 8.42875Z" fill="currentColor" fill-opacity="0.4"/>
</svg>
